<?xml version="1.0" encoding="UTF-8"?>
<svg id="Camada_1" xmlns="http://www.w3.org/2000/svg" version="1.1" viewBox="0 0 48 48">
  <!-- Generator: Adobe Illustrator 30.3.0, SVG Export Plug-In . SVG Version: 2.1.3 Build 182)  -->
  <defs>
    <style>
      .st0 {
        fill: #fff;
      }

      .st1 {
        fill: #b62571;
      }
    </style>
  </defs>
  <path class="st0" d="M47.13,17.71c.08,2.22-1.2,4.25-3.39,4.85-.45.12-.9.19-1.37.21-.47.02-.93-.02-1.39-.11-2.23-.44-3.66-2.36-3.75-4.58-.08-2.22,1.2-4.25,3.39-4.85.44-.12.9-.19,1.37-.21.47-.02.93.02,1.39.11,2.23.44,3.66,2.36,3.75,4.58ZM42.24,22.22c.86-.01,1.56-.48,1.91-1.27.2-.45.34-.94.43-1.48.19-1.22.15-2.38-.12-3.49-.28-1.17-.97-2.45-2.36-2.43-1.39.02-2.04,1.32-2.28,2.5-.23,1.12-.23,2.28,0,3.49.1.53.26,1.02.48,1.46.38.77,1.1,1.22,1.95,1.2Z"/>
  <path class="st0" d="M4.25,22.54c-.71-.24-1.31-.59-1.79-1.04-.84-.79-1.35-1.78-1.53-2.97-.02-.16-.05-.27-.05-.41-.03-.44.01-.89.11-1.33.44-2.02,1.95-3.29,3.96-3.68,3.03-.58,6.15,1.48,6.16,4.72,0,1.99-.97,3.59-2.81,4.4-.77.34-1.58.53-2.44.55,0,0,0,0,0,0,0,0,0,0,0,0,1.8.61,2.71.92,2.74.93.45.16.91.27,1.37.3.55.04,1.17-.12,1.46-.59.12-.18.23-.32.44-.21.04.02.06.06.05.1-.1.67-.42,1.32-.89,1.8-.71.72-1.61.96-2.71.72-.98-.21-1.8-.54-2.85-.95-.45-.18-.87-.32-1.26-.42-.5-.14-1.02-.23-1.52-.12-.48.11-.66.5-.8.93-.05.17-.34.31-.44.08,0-.01,0-.03-.01-.04-.01-.21,0-.38.05-.52.27-.78.88-1.51,1.63-1.88.33-.16.78-.27,1.12-.38,0,0,.01-.01,0-.02,0,0,0,0,0,0ZM8.37,16.2c-.34-1.37-1.2-2.81-2.86-2.61-1.62.2-2.09,2.28-2.15,3.59-.06,1.1.09,2.12.43,3.06.26.73.72,1.48,1.43,1.78.78.34,1.73.28,2.39-.3.47-.41.74-1.01.86-1.6.27-1.31.24-2.62-.09-3.92Z"/>
  <path class="st0" d="M23.58,17.39s-.02.01-.02.02c-.05,1.64.85,3.59,2.69,3.83,1.27.16,2.26-.27,2.96-1.29.02-.02.03-.05.04-.08l.12-.31c.03-.08.13-.13.21-.1l.13.05c.09.04.14.14.11.23-.52,1.69-1.95,2.83-3.7,3.01-1.49.15-2.94-.41-3.87-1.59-.35-.45-.62-1.01-.8-1.67-.42-1.55-.21-3.42.81-4.74,1.04-1.34,2.66-1.88,4.36-1.6,1.85.3,3.36,1.66,3.21,3.64-.02.21-.07.49-.26.58-.02,0-.04.01-.06.01h-5.92ZM23.58,16.85h4.01s.05-.02.06-.05c.03-.11.04-.22.03-.33-.04-.47-.16-1.02-.29-1.43-.3-.91-1.1-1.69-2.12-1.42-.69.18-1.1.64-1.38,1.3-.25.6-.36,1.23-.35,1.89,0,.02.01.03.03.03Z"/>
  <path class="st0" d="M33.32,14.85l.81-1.08s.02-.03.04-.04c.58-.48,1.26-.67,2.04-.57.3.04.56.15.78.33.41.33.47.83.36,1.34-.05.24-.15.43-.3.58-.44.42-1.34.49-1.77.01-.06-.07-.17-.21-.33-.4-.28-.35-.75-.33-1.05-.03-.39.39-.56,1.1-.6,1.65-.03.38-.05.99-.07,1.84-.02.79,0,1.58.04,2.38,0,.08.02.21.05.4.08.59.58.89,1.16.83.05,0,.1.03.11.09,0,0,0,0,0,0v.27c0,.05-.04.09-.09.09h-4.39c-.09,0-.17-.07-.19-.16l-.03-.16c-.01-.06.03-.13.09-.14,0,0,.02,0,.03,0,.5.03.81-.19.95-.65.07-.25.12-.51.13-.79.06-1.31.08-2.64.05-4-.01-.57-.05-1.11-.1-1.6-.02-.15-.06-.31-.13-.46-.09-.21-.2-.32-.43-.37-.16-.03-.71-.16-.47-.44.08-.09.17-.15.29-.18.75-.17,1.24-.2,2.24-.3.21-.02.49-.08.63-.1.02,0,.03,0,.04.02l.1.19s0,.02,0,.03c0,.72,0,1.18,0,1.37,0,.01,0,.02.01.03,0,0,0,0,.01,0,0,0,0,0,0,0Z"/>
  <path class="st0" d="M17.99,20.75c-.04.05-.27.36-.69.91-.13.18-.27.31-.41.42-1.49,1.1-4.09.94-4.67-1.12-.07-.24-.12-.53-.15-.86-.05-.51-.06-1.07-.05-1.67.02-.56.04-1.2.06-1.92.02-.68,0-1.42-.19-2.09-.07-.24-.17-.47-.41-.55-.16-.06-.33-.11-.49-.17-.04-.02-.08-.06-.12-.12,0-.02,0-.03,0-.05.03-.09.08-.17.14-.21.02-.01.04-.02.06-.02h3.16s.07.03.07.08h0v6.54s0,.04,0,.05c.03.18.07.34.12.48.3.94,1.2,1.23,2.07.91.61-.23,1.03-.64,1.25-1.25.06-.16.11-.39.16-.7.05-.35.09-.72.12-1.11.07-1.09.07-2.19,0-3.28-.04-.57-.19-1.3-.94-1.26-.1,0-.18-.07-.19-.17,0,0,0,0,0,0v-.14c0-.08.07-.15.15-.15h3.13s.08.04.08.08v7.89s0,.05.01.07c.06.2.16.38.27.53.11.14.42.17.66.21.13.02.24.12.26.25v.07c.03.09-.03.17-.12.19-.01,0-.02,0-.03,0h-3.01s-.04,0-.06-.02l-.2-.2s-.02-.04-.02-.06v-1.54s0,0,0,0c0,0,0,0,0,0Z"/>
  <ellipse class="st0" cx="37.31" cy="23.03" rx="1.57" ry="1.52" transform="translate(-5.33 12.81) rotate(-18.2)"/>
  <path class="st0" d="M19.81,27.19s.02.02.03.02c0,0,0,0,.01,0,.23-.22.39-.54.55-.77.1-.15.25-.29.43-.43.76-.57,1.62-.82,2.57-.73.41.04.78.15,1.11.35.62.37.95,1.01,1.11,1.71.09.39.14.77.15,1.15.03.76.02,1.64-.04,2.66-.04.61-.04,1.16-.03,1.67,0,.23.04.49.1.77.07.34.28.53.62.58.1.02.21.03.31.05.07.01.12.07.12.14v.28s-.03.06-.06.06h-4.35c-.06,0-.12-.04-.15-.09-.14-.27.15-.39.36-.42.2-.02.41-.03.56-.18.22-.24.26-.65.29-.98.1-1.31.09-2.68.06-3.98-.02-.72-.06-1.46-.53-2.02-.32-.38-.82-.52-1.35-.47-1.1.1-1.62,1.26-1.69,2.24-.09,1.38-.09,2.75,0,4.11.02.32.07.61.15.88,0,.02.01.03.02.04.22.4.6.39,1,.4.05,0,.1.04.1.1v.29s-.04.09-.09.09h-4.42s-.04,0-.06-.02c-.1-.07-.14-.15-.11-.25.04-.19.41-.27.58-.3.25-.04.4-.12.48-.36.06-.18.1-.37.12-.55.04-.55.06-.85.06-.9.05-1.39.03-2.71-.06-3.97-.03-.4-.13-.77-.31-1.09-.33-.59-1.07-.79-1.7-.66-.95.19-1.39,1.19-1.45,2.06-.09,1.38-.12,3.14,0,4.62.05.66.32,1.02,1.03.97.05,0,.1.03.1.09,0,0,0,0,0,0v.28s-.04.09-.09.09h-4.32c-.09,0-.16-.07-.16-.16,0-.02,0-.04.01-.06l.04-.1c.03-.08.1-.14.19-.15.34-.06.55-.13.63-.23.17-.22.27-.47.3-.77.09-.87.12-1.75.1-2.63-.03-1.15-.09-2.35-.2-3.61,0-.02,0-.04-.01-.05-.12-.27-.33-.35-.6-.43-.27-.07-.44-.19-.42-.49,0-.04.03-.08.08-.09l3.03-.58s.03,0,.04,0c.14.03.2.11.2.27,0,.62,0,1.11,0,1.49,0,.01.01.02.02.02,0,0,.01,0,.02-.01.16-.25.44-.69.68-.92.24-.25.55-.46.91-.63,1.58-.73,3.51-.24,3.96,1.62Z"/>
  <path class="st0" d="M47.11,31.58c.03.22.03.46,0,.72,0,.03-.01.06-.02.08,0,0,0,.01,0,.02-.18,1.27-1.04,2.07-2.23,2.38-.71.19-1.43.24-2.17.16-.44-.05-.9-.18-1.36-.28-.44-.09-.86-.09-1.26.02-.04.01-.07-.01-.08-.05,0,0,0-.01,0-.02v-3.12s.02-.06.06-.07c.39-.09.48.22.55.52.01.05.04.13.09.24.21.5.46.93.76,1.29.67.82,1.63,1.08,2.62.88.85-.17,1.37-.96,1.09-1.79-.27-.79-1.06-1.12-1.8-1.36-.85-.28-1.54-.51-2.21-.92-.75-.46-1.14-1.12-1.17-2-.04-.99.3-1.76,1-2.31.76-.6,1.76-.78,2.71-.74.2,0,.4.04.61.09.52.13.88.25,1.24.24.03,0,.07,0,.1-.02.26-.09.73-.29.74.09,0,.03,0,.86,0,2.49,0,.01,0,.03,0,.04-.1.2-.34.17-.43-.03-.05-.11-.21-.47-.5-1.08-.09-.18-.16-.32-.23-.43-.53-.77-1.73-1.02-2.56-.78-.62.18-1.04.61-1.02,1.27.02.59.45.97.94,1.22.58.29,1.38.51,1.78.64.45.15.9.36,1.36.64.69.42,1.23,1,1.38,1.79,0,.04.02.07.03.1,0,.02,0,.03.01.05Z"/>
  <path class="st0" d="M32.18,33.64s0-.02-.02-.01c0,0,0,0-.01,0-.9.96-2.37,1.48-3.66,1.2-1.4-.31-1.92-1.54-1.72-2.85.12-.81.55-1.4,1.29-1.78,1.14-.58,2.51-.63,3.61-1.24.65-.36.54-.96.48-1.57-.08-.85-.47-1.55-1.39-1.59-.56-.03-1.14.11-1.33.68-.06.17-.09.35-.1.54-.01.25-.02.52-.04.81,0,.14-.04.3-.09.46-.14.4-.5.56-.9.57-1.13.04-1.37-1.15-.96-1.97.39-.78,1.27-1.22,2.1-1.43.88-.22,1.75-.25,2.62-.07.67.13,1.34.43,1.76,1,.35.48.48,1.23.52,1.86.03.46.04.87.03,1.24-.02.63-.04,1.44-.08,2.42-.02.44,0,.87.05,1.29.03.28.14.71.51.68.01,0,.12-.02.32-.07.24-.05.17.25.16.39,0,.01,0,.02.02.03,0,0,0,0,0,0,.22-.04.41-.08.57-.12.32-.08.39-.36.44-.66.02-.11.03-.24.04-.38.11-1.67.12-3.36.03-5.08-.01-.25-.04-.49-.07-.72-.05-.37-.2-.67-.57-.81-.13-.05-.24-.03-.37-.05-.01,0-.02,0-.04,0-.17-.06-.14-.24-.09-.38,0-.02.02-.03.04-.04.14-.06.25-.09.35-.11.93-.18,1.88-.33,2.86-.43.04,0,.08.03.08.07,0,0,0,0,0,0v7.61s0,.04,0,.06c.11.49.16.95.73,1.03.15.02.3.03.45.02.05,0,.08.03.08.08,0,0,0,0,0,0v.29c0,.05-.04.1-.09.11-.04.01-.09.02-.13.02-.31.02-.75.02-1.31,0-.82-.03-1.67-.05-2.53-.07-.18,0-.66.16-.63-.25,0-.02-.01-.03-.03-.03,0,0-.01,0-.02,0-.15.1-.3.24-.48.31-.68.29-1.61.3-2.16-.25-.23-.22-.35-.5-.36-.81ZM32.14,29.35c-.1.03-.2.06-.31.1-.45.17-.97.39-1.56.67-.24.11-.42.21-.54.3-.74.53-.92,2.07-.37,2.76.64.8,2.09.6,2.58-.29.09-.16.16-.32.22-.46,0-.02.01-.04.01-.06v-2.99s0-.02-.02-.02c0,0,0,0,0,0Z"/>
  <path class="st1" d="M4.17,31.64c-.69-.05-1.39.08-2.05-.02-.5-.07-.84-.33-1.03-.78-.14-.33-.15-.67-.03-1.02.17-.5.51-.81,1.03-.93.01,0,.03,0,.04,0,.25,0,.83,0,1.72,0,.14,0,.34-.02.44-.03.04,0,.06-.03.06-.07.01-.18.01-.34,0-.49-.02-.29-.03-.66-.04-1.1,0-.19.02-.38.08-.57.32-1.09,1.99-1.32,2.61-.37.2.3.23.77.26,1.19.03.35.05.77-.02,1.04-.11.39-.48.68-.8.91-.22.15-.47.31-.76.48-.39.24-.72.57-.99.99-.17.27-.32.51-.45.73-.02.03-.05.04-.08.04Z"/>
  <path class="st1" d="M7.48,31.7c-.26.12-.24.86-.23,1.09.03.72.08,1.31-.44,1.77-.73.65-2.12.4-2.41-.62-.17-.62-.17-1.34.33-1.8.15-.14.32-.26.5-.34.5-.25.82-.41.94-.48.5-.28.77-.62,1.07-1.08.19-.29.21-.52.31-.92.06-.23.16-.43.42-.44.57-.02,1.04-.03,1.42-.01.26.01.45.05.57.1,1.1.5,1.05,2.39-.22,2.65-.14.03-.37.04-.7.02-.56-.02-.99-.03-1.28-.02-.11,0-.21.03-.3.07Z"/>
</svg>