<?xml version="1.0" encoding="UTF-8"?>
<svg id="Camada_1" xmlns="http://www.w3.org/2000/svg" version="1.1" viewBox="0 0 512 512">
  <!-- Generator: Adobe Illustrator 30.3.0, SVG Export Plug-In . SVG Version: 2.1.3 Build 182)  -->
  <defs>
    <style>
      .st0 {
        fill: #fff;
      }

      .st1 {
        fill: #b62571;
      }
    </style>
  </defs>
  <path class="st0" d="M484.32,193.96c.82,21.91-11.84,41.92-33.5,47.86-4.39,1.2-8.91,1.89-13.56,2.07-4.64.17-9.2-.18-13.67-1.05-22.05-4.3-36.16-23.3-36.98-45.22-.82-21.92,11.84-41.92,33.5-47.86,4.39-1.2,8.91-1.89,13.55-2.07,4.64-.17,9.2.18,13.67,1.05,22.05,4.3,36.16,23.3,36.98,45.22ZM436.08,238.46c8.46-.14,15.39-4.78,18.87-12.53,1.98-4.42,3.38-9.29,4.2-14.6,1.85-12.02,1.46-23.51-1.18-34.46-2.79-11.58-9.59-24.18-23.32-23.95-13.74.23-20.11,13.04-22.52,24.71-2.27,11.04-2.27,22.53-.02,34.49,1,5.28,2.56,10.09,4.69,14.44,3.73,7.63,10.82,12.04,19.28,11.89Z"/>
  <path class="st0" d="M61.02,241.63c-7.01-2.38-12.9-5.8-17.66-10.27-8.28-7.77-13.32-17.53-15.11-29.28-.25-1.61-.45-2.63-.53-4.02-.25-4.38.11-8.76,1.07-13.13,4.39-19.95,19.24-32.52,39.11-36.29,29.95-5.69,60.71,14.61,60.8,46.62.05,19.67-9.62,35.44-27.7,43.46-7.58,3.36-15.59,5.18-24.04,5.46-.05,0-.08.04-.08.09,0,.03.02.06.06.07,17.75,6,26.79,9.05,27.09,9.16,4.41,1.55,9.02,2.66,13.54,2.99,5.41.39,11.51-1.22,14.46-5.79,1.15-1.79,2.28-3.15,4.35-2.12.36.18.56.57.5.97-1.01,6.61-4.11,13.06-8.77,17.8-6.99,7.1-15.91,9.49-26.77,7.15-9.7-2.09-17.79-5.34-28.18-9.37-4.46-1.73-8.61-3.12-12.44-4.18-4.95-1.36-10.05-2.29-14.99-1.17-4.74,1.07-6.54,4.9-7.91,9.22-.54,1.71-3.35,3.09-4.34.76-.06-.14-.09-.28-.1-.43-.11-2.03.07-3.74.54-5.13,2.62-7.67,8.68-14.94,16.08-18.6,3.28-1.62,7.68-2.62,11.05-3.7.07-.02.11-.1.08-.17-.01-.04-.04-.07-.08-.08ZM101.74,178.97c-3.4-13.56-11.86-27.76-28.26-25.76-15.98,1.95-20.58,22.54-21.25,35.39-.56,10.82.85,20.9,4.24,30.24,2.6,7.18,7.13,14.59,14.11,17.61,7.69,3.33,17.11,2.71,23.54-2.98,4.6-4.05,7.27-9.96,8.47-15.78,2.67-12.93,2.39-25.84-.85-38.72Z"/>
  <path class="st0" d="M251.84,190.78c-.13,0-.24.1-.24.24-.47,16.2,8.41,35.47,26.5,37.79,12.56,1.61,22.28-2.63,29.17-12.72.16-.24.3-.5.4-.77l1.17-3.1c.32-.84,1.25-1.26,2.09-.95l1.31.49c.93.35,1.42,1.36,1.12,2.31-5.17,16.68-19.3,27.93-36.55,29.72-14.68,1.52-29.02-4.05-38.18-15.74-3.48-4.44-6.12-9.94-7.91-16.51-4.18-15.33-2.08-33.72,8.02-46.75,10.29-13.27,26.29-18.56,43-15.84,18.26,2.98,33.12,16.42,31.69,35.93-.15,2.1-.68,4.84-2.57,5.76-.18.09-.38.13-.58.13h-58.45ZM251.89,185.44h39.61c.27,0,.51-.18.57-.44.28-1.08.38-2.17.29-3.28-.38-4.66-1.53-10.09-2.85-14.07-2.96-8.98-10.84-16.67-20.91-13.99-6.86,1.83-10.9,6.3-13.58,12.8-2.44,5.93-3.59,12.16-3.45,18.69,0,.17.14.3.31.3Z"/>
  <path class="st0" d="M347.99,165.7l8-10.63c.11-.15.24-.28.38-.39,5.76-4.69,12.46-6.57,20.12-5.63,2.96.36,5.53,1.44,7.74,3.23,4.01,3.26,4.62,8.23,3.54,13.27-.51,2.39-1.52,4.29-3,5.71-4.31,4.1-13.25,4.84-17.46.14-.64-.71-1.71-2.03-3.22-3.94-2.74-3.48-7.36-3.24-10.38-.27-3.9,3.83-5.51,10.86-5.93,16.3-.29,3.74-.52,9.78-.7,18.13-.16,7.8-.03,15.64.4,23.53.04.79.2,2.11.47,3.98.83,5.8,5.69,8.78,11.45,8.2.53-.05.99.33,1.04.86,0,.03,0,.06,0,.09v2.67c0,.51-.42.93-.93.93h-43.38c-.92,0-1.7-.65-1.88-1.55l-.31-1.61c-.12-.64.3-1.25.93-1.38.09-.02.19-.02.28-.02,4.93.25,8.04-1.88,9.35-6.4.71-2.47,1.14-5.08,1.27-7.83.63-12.91.8-26.07.49-39.49-.13-5.66-.47-10.93-1.03-15.83-.17-1.51-.59-3.03-1.26-4.58-.9-2.1-1.96-3.21-4.25-3.64-1.56-.29-6.96-1.59-4.65-4.32.74-.87,1.71-1.45,2.89-1.73,7.36-1.72,12.22-1.94,22.1-2.96,2.05-.21,4.83-.81,6.23-1.01.17-.02.33.06.41.21l.99,1.88c.05.1.08.2.08.31.02,7.13,0,11.64-.04,13.51,0,.11.04.19.13.25.04.03.09.02.12-.02,0,0,0,0,0,0Z"/>
  <path class="st0" d="M196.68,223.88c-.37.52-2.64,3.51-6.81,8.96-1.32,1.73-2.67,3.1-4.03,4.11-14.75,10.91-40.35,9.27-46.09-11.08-.67-2.4-1.17-5.24-1.48-8.5-.48-5.03-.64-10.52-.47-16.45.15-5.51.35-11.83.58-18.95.22-6.67.06-14.01-1.87-20.62-.71-2.41-1.66-4.62-4.03-5.43-1.62-.56-3.23-1.11-4.83-1.66-.43-.15-.82-.55-1.16-1.19-.08-.15-.1-.33-.05-.5.3-.93.77-1.63,1.4-2.09.16-.12.35-.18.55-.18h31.16c.41,0,.74.33.74.74h0v64.51c0,.18.02.37.05.54.34,1.79.72,3.38,1.16,4.75,2.91,9.26,11.8,12.18,20.43,8.97,6.02-2.24,10.14-6.36,12.36-12.37.57-1.55,1.09-3.84,1.54-6.88.51-3.45.89-7.1,1.14-10.96.68-10.8.65-21.57-.09-32.33-.39-5.62-1.89-12.8-9.28-12.39-.97.05-1.8-.69-1.85-1.66,0-.03,0-.06,0-.09v-1.37c0-.82.66-1.48,1.48-1.48h30.9c.43,0,.77.35.77.77v77.84c0,.23.04.46.11.69.64,1.99,1.53,3.72,2.68,5.2,1.09,1.41,4.13,1.69,6.47,2.02,1.3.18,2.34,1.17,2.58,2.46l.13.7c.17.88-.4,1.72-1.28,1.89-.1.02-.2.03-.31.03h-29.71c-.21,0-.41-.08-.56-.24l-1.95-1.95c-.15-.15-.23-.35-.23-.56v-15.22c0-.05-.05-.09-.1-.09-.03,0-.05.01-.07.03Z"/>
  <ellipse class="st0" cx="387.4" cy="246.46" rx="15.46" ry="15.04" transform="translate(-57.6 133.33) rotate(-18.2)"/>
  <path class="st0" d="M214.6,287.52c.03.14.17.23.31.19.05-.01.09-.03.12-.07,2.28-2.17,3.87-5.33,5.47-7.6,1.02-1.45,2.43-2.85,4.22-4.21,7.5-5.66,15.94-8.08,25.34-7.24,4.03.36,7.67,1.5,10.93,3.44,6.16,3.66,9.42,9.99,11,16.92.87,3.83,1.38,7.61,1.53,11.36.31,7.48.17,16.22-.41,26.21-.35,5.99-.43,11.49-.26,16.49.08,2.3.42,4.83,1,7.59.7,3.33,2.76,5.24,6.16,5.75,1.03.15,2.05.31,3.05.47.67.11,1.17.69,1.17,1.37v2.71c0,.34-.28.62-.62.62h-42.95c-.64,0-1.22-.35-1.51-.9-1.41-2.64,1.51-3.89,3.57-4.13,2.02-.24,4.09-.25,5.48-1.74,2.2-2.35,2.61-6.44,2.85-9.69.98-12.97.85-26.41.55-39.25-.17-7.14-.58-14.39-5.18-19.9-3.11-3.73-8.14-5.12-13.28-4.64-10.89,1.01-16.02,12.48-16.66,22.09-.91,13.65-.93,27.16-.06,40.52.21,3.16.7,6.04,1.47,8.66.04.15.11.3.18.43,2.2,3.94,5.88,3.89,9.89,3.9.52,0,.95.43.95.95v2.86c0,.47-.38.85-.85.85h-43.64c-.2,0-.4-.06-.57-.17-.97-.67-1.35-1.51-1.13-2.49.42-1.92,4.04-2.66,5.71-2.91,2.44-.38,3.96-1.23,4.75-3.53.64-1.82,1.02-3.65,1.14-5.48.37-5.44.57-8.42.59-8.93.49-13.67.29-26.73-.6-39.19-.28-3.98-1.31-7.57-3.09-10.78-3.25-5.85-10.56-7.76-16.76-6.51-9.38,1.88-13.71,11.7-14.27,20.33-.88,13.61-1.15,31.03-.06,45.61.48,6.5,3.13,10.11,10.13,9.57.5-.04.94.34.98.84,0,.02,0,.05,0,.07v2.74c0,.47-.38.86-.85.86h-42.63c-.88,0-1.6-.71-1.6-1.6,0-.19.03-.38.1-.56l.36-.96c.3-.8,1-1.37,1.84-1.51,3.37-.56,5.43-1.32,6.19-2.31,1.66-2.15,2.63-4.67,2.91-7.58.84-8.62,1.16-17.29.95-26-.27-11.36-.92-23.23-1.94-35.61-.01-.18-.06-.35-.13-.51-1.23-2.62-3.23-3.46-5.9-4.2-2.63-.73-4.32-1.87-4.11-4.87.03-.42.34-.77.76-.85l29.88-5.7c.13-.03.27-.03.41,0,1.42.28,2.01,1.1,2.01,2.69,0,6.09-.01,10.98-.04,14.67,0,.12.1.22.22.22.07,0,.14-.04.18-.1,1.61-2.5,4.38-6.76,6.67-9.11,2.4-2.47,5.4-4.53,8.99-6.19,15.6-7.2,34.68-2.34,39.08,16.03Z"/>
  <path class="st0" d="M484.09,330.79c.33,2.15.33,4.52,0,7.1-.04.34-.12.62-.22.81-.03.06-.05.13-.06.19-1.82,12.5-10.26,20.42-22.03,23.53-6.96,1.84-14.11,2.36-21.45,1.56-4.35-.47-8.92-1.76-13.44-2.73-4.32-.93-8.46-.85-12.42.24-.36.1-.73-.11-.82-.47-.02-.06-.02-.12-.02-.18v-30.75c0-.34.23-.63.56-.71,3.85-.93,4.7,2.19,5.42,5.12.13.53.42,1.33.87,2.41,2.08,4.91,4.58,9.17,7.52,12.77,6.58,8.07,16.06,10.62,25.9,8.69,8.38-1.65,13.53-9.45,10.73-17.69-2.67-7.84-10.46-11.02-17.76-13.47-8.42-2.81-15.18-5-21.85-9.09-7.37-4.52-11.22-11.09-11.54-19.73-.36-9.72,2.93-17.34,9.89-22.85,7.53-5.97,17.4-7.7,26.77-7.3,1.97.09,3.98.4,6.04.94,5.1,1.32,8.72,2.46,12.25,2.41.33,0,.65-.06.96-.17,2.58-.89,7.18-2.89,7.3.89,0,.29.01,8.48.01,24.57,0,.15-.03.29-.1.42-.95,1.98-3.36,1.68-4.2-.27-.46-1.06-2.11-4.61-4.95-10.65-.84-1.79-1.61-3.19-2.31-4.2-5.19-7.59-17.04-10.09-25.24-7.67-6.14,1.81-10.27,5.97-10.05,12.54.2,5.78,4.42,9.6,9.23,12,5.72,2.86,13.58,5.01,17.6,6.31,4.45,1.46,8.92,3.55,13.39,6.28,6.78,4.15,12.09,9.92,13.64,17.64.07.39.16.71.25.97.05.15.09.31.12.48Z"/>
  <path class="st0" d="M336.75,351.12c0-.08-.08-.15-.16-.15-.04,0-.08.02-.11.05-8.86,9.46-23.37,14.65-36.17,11.8-13.82-3.07-18.95-15.15-16.96-28.17,1.22-7.97,5.47-13.82,12.75-17.53,11.23-5.74,24.74-6.25,35.64-12.25,6.43-3.53,5.34-9.44,4.76-15.54-.8-8.36-4.65-15.29-13.77-15.74-5.51-.27-11.26,1.09-13.14,6.72-.56,1.67-.88,3.44-.97,5.32-.12,2.48-.24,5.16-.35,8.03-.06,1.41-.37,2.94-.93,4.58-1.37,3.97-4.91,5.5-8.91,5.63-11.13.36-13.52-11.33-9.51-19.45,3.81-7.72,12.58-12.05,20.68-14.08,8.66-2.18,17.3-2.42,25.91-.72,6.63,1.31,13.27,4.29,17.32,9.83,3.5,4.78,4.71,12.16,5.15,18.32.33,4.54.44,8.62.34,12.24-.17,6.22-.44,14.2-.81,23.93-.17,4.36.01,8.61.53,12.75.34,2.75,1.35,7.04,5.06,6.69.1,0,1.16-.23,3.17-.67,2.35-.51,1.69,2.52,1.6,3.9,0,.13.09.25.23.25.02,0,.04,0,.06,0,2.19-.41,4.08-.81,5.66-1.21,3.16-.79,3.83-3.53,4.35-6.53.19-1.11.33-2.37.43-3.78,1.1-16.44,1.21-33.15.34-50.13-.13-2.46-.35-4.84-.65-7.15-.49-3.68-1.93-6.66-5.66-8-1.31-.47-2.34-.34-3.67-.48-.12-.01-.24-.04-.35-.08-1.64-.59-1.43-2.41-.9-3.75.07-.17.19-.3.36-.36,1.36-.56,2.5-.93,3.43-1.11,9.17-1.82,18.58-3.25,28.24-4.28.4-.04.75.25.79.65,0,.02,0,.05,0,.07v75.16c0,.21.02.43.07.63,1.04,4.87,1.6,9.36,7.24,10.18,1.46.21,2.94.29,4.46.24.45-.01.82.34.83.78,0,0,0,.02,0,.03v2.9c0,.52-.35.98-.86,1.1-.44.11-.87.18-1.3.2-3.03.19-7.36.18-12.97-.04-8.12-.31-16.43-.54-24.96-.69-1.78-.03-6.53,1.58-6.17-2.43.02-.17-.11-.32-.28-.33-.07,0-.14.01-.19.05-1.52.98-2.93,2.33-4.73,3.09-6.69,2.83-15.85,2.96-21.32-2.44-2.24-2.21-3.44-4.89-3.59-8.04ZM336.31,308.77c-1.01.27-2.01.59-3.02.97-4.43,1.67-9.57,3.87-15.4,6.59-2.39,1.11-4.18,2.1-5.36,2.94-7.3,5.24-9.1,20.45-3.68,27.19,6.32,7.85,20.67,5.9,25.48-2.82.89-1.61,1.6-3.13,2.14-4.56.07-.19.11-.4.11-.61v-29.5c0-.12-.1-.22-.21-.22-.02,0-.04,0-.05,0Z"/>
  <path class="st1" d="M60.27,331.45c-6.84-.51-13.73.76-20.26-.19-4.92-.71-8.31-3.27-10.17-7.68-1.39-3.28-1.5-6.63-.34-10.06,1.68-4.98,5.08-8.03,10.21-9.17.15-.03.29-.05.44-.05,2.49-.03,8.16-.03,17.02,0,1.42,0,3.35-.18,4.35-.29.35-.04.61-.32.64-.67.12-1.79.13-3.39.03-4.81-.2-2.89-.33-6.51-.38-10.85-.03-1.9.24-3.78.79-5.64,3.17-10.74,19.65-13.07,25.73-3.69,1.95,3.01,2.23,7.62,2.53,11.73.26,3.46.52,7.62-.2,10.28-1.06,3.9-4.73,6.76-7.94,8.95-2.19,1.5-4.69,3.09-7.5,4.78-3.87,2.32-7.12,5.59-9.76,9.8-1.65,2.62-3.12,5.02-4.42,7.18-.16.26-.45.42-.76.39Z"/>
  <path class="st1" d="M92.93,332c-2.57,1.2-2.36,8.48-2.27,10.8.27,7.08.77,12.95-4.34,17.51-7.17,6.4-20.95,3.97-23.74-6.11-1.68-6.07-1.72-13.2,3.27-17.79,1.51-1.39,3.14-2.53,4.91-3.41,4.98-2.47,8.08-4.05,9.31-4.74,4.9-2.74,7.63-6.15,10.61-10.62,1.89-2.86,2.12-5.16,3.09-9.04.58-2.28,1.56-4.23,4.14-4.34,5.64-.25,10.31-.28,14.01-.11,2.52.11,4.4.45,5.64,1.02,10.82,4.95,10.34,23.6-2.15,26.14-1.37.28-3.67.35-6.91.2-5.51-.25-9.73-.3-12.65-.16-1.13.05-2.1.27-2.91.65Z"/>
</svg>